<svg width="7" height="5" viewBox="0 0 7 5" fill="none" xmlns="http://www.w3.org/2000/svg">
<path d="M6.95 1C6.55 1.45 5.8 1.9 5 1.9C4.25 1.9 3.8 1.65 3.4 1.45C3 1.3 2.6 1.05 1.95 1.05C1.35 1.05 0.8 1.4 0.5 1.7L0 0.95C0.45 0.5 1.15 0 1.95 0C2.7 0 3.15 0.3 3.55 0.45C3.95 0.6 4.35 0.9 5 0.9C5.6 0.9 6.15 0.5 6.45 0.2L6.95 1ZM7 3.45C6.55 3.9 5.85 4.4 5.05 4.4C4.3 4.4 3.85 4.15 3.45 3.95C3.05 3.8 2.65 3.5 2 3.5C1.4 3.5 0.85 3.9 0.55 4.2L0.05 3.4C0.5 2.95 1.2 2.45 2 2.45C2.75 2.45 3.2 2.7 3.6 2.9C4 3.05 4.4 3.3 5.05 3.3C5.65 3.3 6.2 2.9 6.5 2.6L7 3.45Z" fill="#AAAAAA"/>
</svg>
