<?xml version="1.0" encoding="UTF-8"?>
<!DOCTYPE svg PUBLIC "-//W3C//DTD SVG 1.1//EN" "http://www.w3.org/Graphics/SVG/1.1/DTD/svg11.dtd">
<!-- Creator: CorelDRAW 2019 (64-Bit) -->
<svg xmlns="http://www.w3.org/2000/svg" xml:space="preserve" width="2482px" height="675px" version="1.1" style="shape-rendering:geometricPrecision; text-rendering:geometricPrecision; image-rendering:optimizeQuality; fill-rule:evenodd; clip-rule:evenodd"
viewBox="0 0 2466.62 670.77"
 xmlns:xlink="http://www.w3.org/1999/xlink"
 xmlns:xodm="http://www.corel.com/coreldraw/odm/2003">
 <defs>
  <style type="text/css">
   <![CDATA[
    .str0 {stroke:#FEFEFE;stroke-width:12.42;stroke-miterlimit:22.9256}
    .str1 {stroke:white;stroke-width:6.21;stroke-miterlimit:22.9256}
    .fil4 {fill:none}
    .fil3 {fill:#FEFEFE}
    .fil2 {fill:#408EE1}
    .fil0 {fill:#408EE1;fill-rule:nonzero}
    .fil1 {fill:white;fill-rule:nonzero}
   ]]>
  </style>
 </defs>
 <g id="Layer_x0020_1">
  <metadata id="CorelCorpID_0Corel-Layer"/>
  <path class="fil0" d="M836.02 311.59c0,15.7 -4.56,27.64 -13.7,35.87 -9.18,8.23 -20.22,12.33 -33.11,12.33 -14.94,0 -26.5,-5 -34.63,-14.94 -8.14,-9.95 -12.18,-22.13 -12.18,-36.63l0 -131.31c0,-11.32 1.95,-21.22 5.85,-29.64 3.9,-8.37 9.42,-14.8 16.6,-19.22 7.14,-4.43 15.56,-6.61 25.22,-6.61 9.18,0 17.27,1.99 24.31,5.99 6.99,4 12.37,9.56 16.08,16.7 3.71,7.18 5.56,15.22 5.56,24.12l0 24.83 -34.25 0 0 -17.98c0,-9.13 -0.62,-15.51 -1.81,-19.12 -1.23,-3.62 -4.33,-5.43 -9.37,-5.43 -9.28,0 -13.94,6.81 -13.94,20.36l0 143.01c0,4.38 1.1,8.28 3.28,11.66 2.19,3.38 5.29,5.09 9.28,5.09 3.71,0 6.76,-1.38 9.09,-4.09 2.33,-2.76 3.47,-6.04 3.47,-9.85l0 -34.87 34.25 0 0 29.73z"/>
  <path id="1" class="fil0" d="M903.87 205.02c-2.15,-1.28 -4.52,-1.94 -7.09,-1.94 -4.95,0 -8.33,2.52 -10.14,7.61 -1.8,5.04 -2.71,11.75 -2.71,20.12l0 126.98 -30.26 0 0 -185.54 30.26 0 0 21.88 0.57 0c3.14,-11.56 5.33,-18.27 6.52,-20.27 1.81,-2.23 3.81,-3.33 5.99,-3.33 3.19,0 5.48,1.38 6.86,4.19l0 30.3z"/>
  <path id="2" class="fil0" d="M993.54 172.25l-24.26 158.66c-2.33,15.51 -3.95,25.36 -4.95,29.49 -1,4.1 -2.47,7.9 -4.52,11.33 -4.37,8.23 -11.89,12.32 -22.45,12.32 -4.76,0 -9.47,-1.14 -14.13,-3.33l0 -29.26c4.66,3.28 7.99,4.9 10.04,4.9 2.23,0 4.33,-1.38 6.23,-4.09 1.9,-2.76 2.85,-5.95 2.85,-9.56 0,-0.67 -0.09,-1.62 -0.28,-2.95l-28.17 -167.51 29.98 0 10.46 119.6 0.72 0 8.51 -119.6 29.97 0z"/>
  <path id="3" class="fil0" d="M1090.31 316.92c0,12.37 -2.57,22.55 -7.75,30.45 -5.14,7.9 -12.33,11.85 -21.41,11.85 -4.47,0 -7.99,-0.91 -10.56,-2.67 -2.57,-1.76 -6.24,-5.23 -11.09,-10.47l0 37.92 -30.26 0 0 -211.75 30.26 0 0 11.13 0.57 0c4.66,-8.56 11.33,-12.85 19.98,-12.85 5.66,0 10.8,1.91 15.42,5.67 4.61,3.75 8.23,9.51 10.85,17.36 2.66,7.8 3.99,17.32 3.99,28.55l0 94.81zm-30.26 4.33l0 -109.66c0,-2.9 -0.9,-5.85 -2.66,-8.99 -1.76,-3.09 -4.43,-4.66 -7.95,-4.66 -1.23,0 -2.56,0.38 -3.99,1.09 -1.43,0.76 -2.67,1.62 -3.67,2.62 -0.95,0.95 -1.42,1.62 -1.42,2l-0.57 1.14 -0.29 0 0 116.46c0,1.86 1.05,4.38 3.14,7.52 2.09,3.19 4.81,4.75 8.04,4.75 6.23,0 9.37,-4.09 9.37,-12.27z"/>
  <polygon id="4" class="fil0" points="1152.06,198.79 1143.98,198.79 1143.98,357.79 1113.72,357.79 1113.72,198.79 1105.77,198.79 1105.77,172.25 1113.72,172.25 1113.72,136.57 1143.98,136.57 1143.98,172.25 1152.06,172.25 "/>
  <path id="5" class="fil0" d="M1248.21 309.78c0,8.19 -1.23,15.99 -3.76,23.41 -2.52,7.38 -6.75,13.56 -12.7,18.56 -5.94,4.99 -13.75,7.47 -23.45,7.47 -14.32,0 -24.74,-5 -31.31,-14.99 -6.56,-9.99 -9.84,-21.93 -9.84,-35.78l0 -93.72c0,-5.85 1.28,-12.23 3.85,-19.17 2.52,-6.9 6.8,-12.85 12.8,-17.7 6.04,-4.9 13.84,-7.33 23.55,-7.33 7.61,0 14.13,1.48 19.5,4.48 5.42,2.94 9.66,6.8 12.7,11.46 3.1,4.71 5.29,9.9 6.62,15.51 1.38,5.61 2.04,11.32 2.04,17.08l0 90.72zm-30.25 7.14l0 -104.09c0,-2.86 -0.72,-6.09 -2.19,-9.61 -1.43,-3.52 -4.14,-5.28 -8.14,-5.28 -3.76,0 -6.37,1.57 -7.94,4.75 -1.53,3.14 -2.29,6.52 -2.29,10.14l0 103.24c0,10.51 3.52,15.74 10.61,15.74 3.76,0 6.33,-1.62 7.76,-4.8 1.47,-3.19 2.19,-6.57 2.19,-10.09z"/>
  <path id="6" class="fil0" d="M1420.15 306.36c0,13.61 -3.52,25.88 -10.52,36.92 -7.04,10.99 -18.6,16.51 -34.68,16.51 -10.42,0 -19.12,-2.38 -26.12,-7.09 -7.04,-4.76 -12.18,-10.8 -15.41,-18.08 -3.28,-7.28 -4.9,-14.99 -4.9,-23.07l0 -188.12 33.97 0 0 192.16c0,9.66 3.71,14.51 11.13,14.51 4.76,0 7.99,-1.62 9.71,-4.9 1.71,-3.24 2.56,-7.71 2.56,-13.37l0 -188.4 34.26 0 0 182.93z"/>
  <path id="7" class="fil0" d="M1520.58 357.79l-30.26 0 0 -145.91c0,-3.05 -1,-6.14 -2.95,-9.28 -1.95,-3.09 -4.61,-4.66 -7.94,-4.66 -2.62,0 -5,0.85 -7.09,2.57 -2.1,1.71 -3.14,3.66 -3.14,5.8l0 151.48 -30.26 0 0 -185.54 30.26 0 0 9.04 0.57 0c4.9,-7.19 11.56,-10.76 19.93,-10.76 9.04,0 16.46,3.76 22.22,11.28 5.76,7.56 8.66,18.51 8.66,32.92l0 143.06z"/>
  <path id="8" class="fil0" d="M1575.48 144.27c0,4.62 -1.71,8.61 -5.14,11.9 -3.47,3.28 -7.28,4.94 -11.46,4.94 -5,0 -9.14,-1.71 -12.33,-5.09 -3.18,-3.37 -4.8,-7.28 -4.8,-11.75 0,-4.76 1.62,-8.7 4.85,-11.99 3.28,-3.23 7.28,-4.85 12.04,-4.85 4.61,0 8.61,1.67 11.89,4.95 3.28,3.28 4.95,7.23 4.95,11.89zm-1.81 213.52l-30.26 0 0 -185.54 30.26 0 0 185.54z"/>
  <polygon id="9" class="fil0" points="1638.33,198.79 1630.24,198.79 1630.24,357.79 1599.98,357.79 1599.98,198.79 1592.04,198.79 1592.04,172.25 1599.98,172.25 1599.98,136.57 1630.24,136.57 1630.24,172.25 1638.33,172.25 "/>
  <path id="10" class="fil0" d="M1726.77 172.25l-24.26 158.66c-2.34,15.51 -3.95,25.36 -4.95,29.49 -1,4.1 -2.48,7.9 -4.52,11.33 -4.38,8.23 -11.9,12.32 -22.46,12.32 -4.76,0 -9.47,-1.14 -14.13,-3.33l0 -29.26c4.66,3.28 8,4.9 10.04,4.9 2.24,0 4.33,-1.38 6.23,-4.09 1.91,-2.76 2.86,-5.95 2.86,-9.56 0,-0.67 -0.1,-1.62 -0.29,-2.95l-28.16 -167.51 29.97 0 10.47 119.6 0.71 0 8.52 -119.6 29.97 0z"/>
  <path id="11" class="fil0" d="M1896.13 357.79l-22.88 0c-7.99,-22.84 -14.84,-43.25 -20.46,-61.14 -5.61,-17.88 -11.94,-38.96 -18.88,-63.32l-0.57 0 0 124.46 -31.69 0 0 -234.36 22.22 0c12.75,36.54 26.07,78.69 40.01,126.46l0.57 0 0 -126.46 31.68 0 0 234.36z"/>
  <path id="12" class="fil0" d="M1994.85 321.2c0,5.71 -1.38,11.47 -4.18,17.32 -2.81,5.9 -7.19,10.8 -13.18,14.75 -6,3.95 -13.42,5.95 -22.27,5.95 -13.94,0 -24.4,-4.1 -31.3,-12.33 -6.95,-8.23 -10.42,-18.41 -10.42,-30.49l0 -103.05c0,-11.8 3.47,-21.88 10.47,-30.26 6.99,-8.37 17.08,-12.56 30.3,-12.56 6.04,0 11.47,0.91 16.37,2.72 4.9,1.8 9.18,4.51 12.84,8.08 3.67,3.57 6.47,7.95 8.42,13.13 1.95,5.14 2.95,10.95 2.95,17.37l0 61.47 -51.09 0 0 47.67c0,3.9 1.04,6.66 3.14,8.32 2.09,1.67 4.47,2.52 7.09,2.52 7.08,0 10.6,-4.85 10.6,-14.6l0 -17.7 30.26 0 0 21.69zm-30.26 -73.02l0 -38.25c0,-3.72 -0.95,-6.66 -2.8,-8.81 -1.86,-2.14 -4.57,-3.18 -8.09,-3.18 -3.19,0 -5.61,1.28 -7.37,3.9 -1.72,2.57 -2.57,5.28 -2.57,8.09l0 38.25 20.83 0z"/>
  <polygon id="13" class="fil0" points="2056.32,198.79 2048.23,198.79 2048.23,357.79 2017.97,357.79 2017.97,198.79 2010.03,198.79 2010.03,172.25 2017.97,172.25 2017.97,136.57 2048.23,136.57 2048.23,172.25 2056.32,172.25 "/>
  <polygon id="14" class="fil0" points="2201.85,172.25 2173.02,359.22 2150.14,359.22 2134.68,241.61 2134.15,241.61 2119.93,359.22 2096.23,359.22 2066.26,172.25 2096.23,172.25 2107.65,288.42 2108.22,288.42 2122.16,172.25 2146.09,172.25 2161.32,289.28 2161.84,289.28 2172.16,172.25 "/>
  <path id="15" class="fil0" d="M2293.1 309.78c0,8.19 -1.24,15.99 -3.76,23.41 -2.52,7.38 -6.75,13.56 -12.7,18.56 -5.95,4.99 -13.75,7.47 -23.46,7.47 -14.32,0 -24.73,-5 -31.3,-14.99 -6.57,-9.99 -9.85,-21.93 -9.85,-35.78l0 -93.72c0,-5.85 1.29,-12.23 3.86,-19.17 2.52,-6.9 6.8,-12.85 12.79,-17.7 6.05,-4.9 13.85,-7.33 23.55,-7.33 7.62,0 14.13,1.48 19.51,4.48 5.42,2.94 9.66,6.8 12.7,11.46 3.09,4.71 5.28,9.9 6.61,15.51 1.38,5.61 2.05,11.32 2.05,17.08l0 90.72zm-30.26 7.14l0 -104.09c0,-2.86 -0.71,-6.09 -2.19,-9.61 -1.42,-3.52 -4.13,-5.28 -8.13,-5.28 -3.76,0 -6.38,1.57 -7.95,4.75 -1.52,3.14 -2.28,6.52 -2.28,10.14l0 103.24c0,10.51 3.52,15.74 10.61,15.74 3.76,0 6.33,-1.62 7.75,-4.8 1.48,-3.19 2.19,-6.57 2.19,-10.09z"/>
  <path id="16" class="fil0" d="M2362.13 205.02c-2.14,-1.28 -4.52,-1.94 -7.09,-1.94 -4.95,0 -8.32,2.52 -10.13,7.61 -1.81,5.04 -2.71,11.75 -2.71,20.12l0 126.98 -30.26 0 0 -185.54 30.26 0 0 21.88 0.57 0c3.14,-11.56 5.33,-18.27 6.52,-20.27 1.8,-2.23 3.8,-3.33 5.99,-3.33 3.19,0 5.47,1.38 6.85,4.19l0 30.3z"/>
  <polygon id="17" class="fil0" points="2460.8,357.79 2432.78,357.79 2406.71,259.02 2406.14,259.02 2406.14,357.79 2375.88,357.79 2375.88,123.43 2406.14,123.43 2406.14,254.74 2406.71,254.74 2432.78,172.25 2460.8,172.25 2432.78,251.55 "/>
  <polygon class="fil1" points="764.3,509.5 771.3,509.5 788.75,456.33 806.11,509.5 813.11,509.5 834.47,447.06 826.47,447.06 809.2,497.59 792.66,447.06 784.75,447.06 768.21,497.59 750.94,447.06 742.94,447.06 "/>
  <path id="1" class="fil1" d="M864.37 461.42c-6.63,0 -12.72,3.64 -15.45,8.63l0 -24.08 -6.82 0 0 63.53 6.82 0 0 -29.9c0,-6.55 6.64,-12.09 14.54,-12.09 6.91,0 11.73,5.36 11.73,13l0 28.99 6.81 0 0 -29.9c0,-10.64 -7.27,-18.18 -17.63,-18.18z"/>
  <path id="2" class="fil1" d="M914.27 504.5c-9.27,0 -15.72,-6.72 -16.72,-15.9l38.44 0c0,-16.46 -8.09,-27.18 -22.26,-27.18 -12.64,0 -23.18,10.45 -23.18,24.45 0,14.45 11.27,24.72 23.81,24.72 6.55,0 14.82,-2.82 18.91,-7.27l-4.18 -4.45c-2.91,3.18 -9.27,5.63 -14.82,5.63zm-0.27 -36.99c9.36,0 14.36,6.54 15.27,15l-31.63 0c1.27,-9.09 8,-15 16.36,-15z"/>
  <path id="3" class="fil1" d="M951.9 471.69l0 -9.18 -6.82 0 0 46.99 6.82 0 0 -26.27c0,-9.18 7.54,-15.72 18.18,-15.72l0 -6.09c-8.64,0 -15.36,4 -18.18,10.27z"/>
  <path id="4" class="fil1" d="M997.98 504.5c-9.27,0 -15.72,-6.72 -16.72,-15.9l38.44 0c0,-16.46 -8.08,-27.18 -22.26,-27.18 -12.64,0 -23.18,10.45 -23.18,24.45 0,14.45 11.27,24.72 23.81,24.72 6.55,0 14.82,-2.82 18.91,-7.27l-4.18 -4.45c-2.91,3.18 -9.27,5.63 -14.82,5.63zm-0.27 -36.99c9.36,0 14.36,6.54 15.27,15l-31.63 0c1.27,-9.09 8,-15 16.36,-15z"/>
  <polygon id="5" class="fil1" points="1054.79,509.5 1061.88,509.5 1061.88,447.06 1054.79,447.06 "/>
  <path id="6" class="fil1" d="M1095.6 461.42c-6.64,0 -12.72,3.64 -15.45,8.63l0 -7.54 -6.82 0 0 46.99 6.82 0 0 -29.9c0,-6.55 6.63,-12.09 14.54,-12.09 6.91,0 11.73,5.36 11.73,13l0 28.99 6.81 0 0 -29.9c0,-10.64 -7.27,-18.18 -17.63,-18.18z"/>
  <path id="7" class="fil1" d="M1146.68 461.42c-6.63,0 -12.72,3.64 -15.45,8.63l0 -7.54 -6.82 0 0 46.99 6.82 0 0 -29.9c0,-6.55 6.63,-12.09 14.54,-12.09 6.91,0 11.73,5.36 11.73,13l0 28.99 6.81 0 0 -29.9c0,-10.64 -7.27,-18.18 -17.63,-18.18z"/>
  <path id="8" class="fil1" d="M1197.22 510.59c13.18,0 24.26,-11.27 24.26,-24.63 0,-13.36 -11.08,-24.54 -24.26,-24.54 -13.18,0 -24.36,11.18 -24.36,24.54 0,13.36 11.18,24.63 24.36,24.63zm0 -6.09c-9.36,0 -17.18,-8.45 -17.18,-18.54 0,-10 7.82,-18.45 17.18,-18.45 9.27,0 17.08,8.45 17.08,18.45 0,10.09 -7.81,18.54 -17.08,18.54z"/>
  <polygon id="9" class="fil1" points="1243.75,509.5 1250.3,509.5 1270.02,462.51 1262.39,462.51 1247.03,501.5 1231.39,462.51 1223.76,462.51 "/>
  <path id="10" class="fil1" d="M1292.11 461.42c-4.55,0 -10.18,1.18 -16.91,4.54l2.73 5.55c4.27,-2.18 9,-4.27 13.72,-4.27 10.18,0 12.73,7.27 12.73,13.63l0 1.73c-4.82,-1.55 -10.18,-2.64 -15.27,-2.64 -10.09,0 -18.45,6.27 -18.45,15.63 0,9.27 7.27,15 17.18,15 6.18,0 13.18,-2.91 16.54,-8.45l0 7.36 6.81 0 0 -28.63c0,-11.36 -6.27,-19.45 -19.08,-19.45zm-3.09 43.17c-6.64,0 -11.73,-3.45 -11.73,-9.27 0,-5.63 5.91,-9.63 12.91,-9.63 5.09,0 9.91,0.72 14.18,1.91l0 7.18c-1.82,6.63 -9.18,9.81 -15.36,9.81z"/>
  <path id="11" class="fil1" d="M1343.01 502.59c-1,1.09 -2.82,1.91 -4.91,1.91 -2.73,0 -5.09,-2.45 -5.09,-5.91l0 -29.99 11.54 0 0 -6.09 -11.54 0 0 -12.91 -6.82 0 0 12.91 -7.36 0 0 6.09 7.36 0 0 29.99c0,7 4.73,12 11.45,12 3.19,0 6.28,-1.09 8.73,-3l-3.36 -5z"/>
  <path id="12" class="fil1" d="M1356.64 453.97c2.46,0 4.46,-2.09 4.46,-4.55 0,-2.36 -2,-4.45 -4.46,-4.45 -2.54,0 -4.54,2.09 -4.54,4.45 0,2.46 2,4.55 4.54,4.55zm-3.45 55.53l6.82 0 0 -46.99 -6.82 0 0 46.99z"/>
  <path id="13" class="fil1" d="M1392.82 510.59c13.18,0 24.26,-11.27 24.26,-24.63 0,-13.36 -11.08,-24.54 -24.26,-24.54 -13.18,0 -24.36,11.18 -24.36,24.54 0,13.36 11.18,24.63 24.36,24.63zm0 -6.09c-9.36,0 -17.18,-8.45 -17.18,-18.54 0,-10 7.82,-18.45 17.18,-18.45 9.27,0 17.09,8.45 17.09,18.45 0,10.09 -7.82,18.54 -17.09,18.54z"/>
  <path id="14" class="fil1" d="M1447.99 461.42c-6.64,0 -12.73,3.64 -15.45,8.63l0 -7.54 -6.82 0 0 46.99 6.82 0 0 -29.9c0,-6.55 6.63,-12.09 14.54,-12.09 6.91,0 11.73,5.36 11.73,13l0 28.99 6.81 0 0 -29.9c0,-10.64 -7.27,-18.18 -17.63,-18.18z"/>
  <polygon id="15" class="fil1" points="1504.71,509.5 1511.79,509.5 1511.79,462.33 1534.97,505.86 1558.15,462.33 1558.15,509.5 1565.24,509.5 1565.24,447.06 1558.15,447.06 1534.97,490.59 1511.79,447.06 1504.71,447.06 "/>
  <path id="16" class="fil1" d="M1599.14 504.5c-9.27,0 -15.72,-6.72 -16.72,-15.9l38.44 0c0,-16.46 -8.08,-27.18 -22.26,-27.18 -12.64,0 -23.18,10.45 -23.18,24.45 0,14.45 11.27,24.72 23.81,24.72 6.55,0 14.82,-2.82 18.91,-7.27l-4.18 -4.45c-2.91,3.18 -9.27,5.63 -14.82,5.63zm-0.27 -36.99c9.36,0 14.36,6.54 15.27,15l-31.63 0c1.27,-9.09 8,-15 16.36,-15z"/>
  <path id="17" class="fil1" d="M1650.5 504.5c-9.28,0 -15.73,-6.72 -16.73,-15.9l38.45 0c0,-16.46 -8.09,-27.18 -22.27,-27.18 -12.63,0 -23.18,10.45 -23.18,24.45 0,14.45 11.27,24.72 23.82,24.72 6.54,0 14.81,-2.82 18.9,-7.27l-4.18 -4.45c-2.91,3.18 -9.27,5.63 -14.81,5.63zm-0.28 -36.99c9.36,0 14.36,6.54 15.27,15l-31.63 0c1.28,-9.09 8,-15 16.36,-15z"/>
  <path id="18" class="fil1" d="M1701.3 502.59c-1,1.09 -2.81,1.91 -4.9,1.91 -2.73,0 -5.09,-2.45 -5.09,-5.91l0 -29.99 11.54 0 0 -6.09 -11.54 0 0 -12.91 -6.82 0 0 12.91 -7.36 0 0 6.09 7.36 0 0 29.99c0,7 4.72,12 11.45,12 3.18,0 6.27,-1.09 8.73,-3l-3.37 -5z"/>
  <path id="19" class="fil1" d="M1728.21 510.59c9.72,0 17.18,-5.54 17.18,-14.18 0,-8.91 -7.82,-11.45 -15.36,-13.81 -8.73,-2.82 -12.18,-4.09 -12.18,-8.18 0,-4.55 4.36,-6.91 9.63,-6.91 4.18,0 8.82,1.45 13.54,4.45l3.28 -5.27c-5,-3.27 -11,-5.27 -16.82,-5.27 -9.36,0 -16.45,5.27 -16.45,13.81 0,6.73 4.36,10.09 15.72,13.37 6.37,1.81 11.82,3.45 11.82,8.54 0,4.45 -4.18,7.36 -10.36,7.36 -5.18,0 -10.54,-2 -15.91,-5.91l-3.54 5c5.63,4.55 12.9,7 19.45,7z"/>
  <path id="20" class="fil1" d="M1810.1 510.59c8.64,0 16.63,-3.73 22.45,-9.54l-4.82 -4.91c-4.54,4.82 -10.81,7.91 -17.63,7.91 -13.45,0 -24.81,-11.82 -24.81,-25.82 0,-13.9 11.36,-25.72 24.81,-25.72 6.82,0 13.09,3.09 17.63,7.91l4.82 -4.91c-5.82,-5.91 -13.81,-9.54 -22.45,-9.54 -17.27,0 -31.99,14.72 -31.99,32.26 0,17.55 14.72,32.36 31.99,32.36z"/>
  <path id="21" class="fil1" d="M1846.82 471.69l0 -9.18 -6.81 0 0 46.99 6.81 0 0 -26.27c0,-9.18 7.55,-15.72 18.18,-15.72l0 -6.09c-8.63,0 -15.36,4 -18.18,10.27z"/>
  <path id="22" class="fil1" d="M1878.73 525.86c6.45,-0.09 10.99,-3.09 14.27,-11.09l21.45 -52.26 -7.37 0 -15.54 39.08 -16.45 -39.08 -7.54 0 20.45 47.17 -2.73 5.82c-1.82,3.18 -3.82,4.18 -6.82,4.18 -2,0 -3.91,-0.36 -5.54,-1.18l-1.64 5.81c2.18,1.01 4.73,1.55 7.46,1.55z"/>
  <path id="23" class="fil1" d="M1947.44 461.42c-7.54,0 -13.54,3.73 -17.09,9.91l0 -8.82 -6.81 0 0 62.62 6.81 0 0 -24.45c3.55,6.18 9.55,9.91 17.09,9.91 12.36,0 21.63,-10.18 21.63,-24.63 0,-14.36 -9.27,-24.54 -21.63,-24.54zm-1.27 43.08c-9.27,0 -15.82,-7.72 -15.82,-18.54 0,-10.82 6.55,-18.45 15.82,-18.45 9.18,0 15.72,7.63 15.72,18.45 0,10.82 -6.54,18.54 -15.72,18.54z"/>
  <path id="24" class="fil1" d="M1998.79 502.59c-1,1.09 -2.81,1.91 -4.9,1.91 -2.73,0 -5.09,-2.45 -5.09,-5.91l0 -29.99 11.54 0 0 -6.09 -11.54 0 0 -12.91 -6.82 0 0 12.91 -7.36 0 0 6.09 7.36 0 0 29.99c0,7 4.73,12 11.45,12 3.18,0 6.27,-1.09 8.73,-3l-3.37 -5z"/>
  <path id="25" class="fil1" d="M2030.88 510.59c13.18,0 24.27,-11.27 24.27,-24.63 0,-13.36 -11.09,-24.54 -24.27,-24.54 -13.18,0 -24.36,11.18 -24.36,24.54 0,13.36 11.18,24.63 24.36,24.63zm0 -6.09c-9.36,0 -17.18,-8.45 -17.18,-18.54 0,-10 7.82,-18.45 17.18,-18.45 9.27,0 17.09,8.45 17.09,18.45 0,10.09 -7.82,18.54 -17.09,18.54z"/>
  <path id="26" class="fil1" d="M2091.69 509.5l29.72 0c10.81,0 18.54,-7.09 18.54,-17.09 0,-6.81 -4.18,-12.45 -11.36,-16.08 5.63,-3.28 8.91,-7.09 8.91,-13.73 0,-9.09 -7.09,-15.54 -17.18,-15.54l-28.63 0 0 62.44zm7.09 -35.99l0 -20 19.72 0c6.91,0 11.82,4.18 11.82,10 0,5.82 -4.91,10 -11.82,10l-19.72 0zm0 29.54l0 -23.09 20.81 0c7.73,0 13.18,4.82 13.18,11.54 0,6.73 -5.45,11.55 -13.18,11.55l-20.81 0z"/>
  <path id="27" class="fil1" d="M2156.77 471.69l0 -9.18 -6.82 0 0 46.99 6.82 0 0 -26.27c0,-9.18 7.54,-15.72 18.17,-15.72l0 -6.09c-8.63,0 -15.36,4 -18.17,10.27z"/>
  <path id="28" class="fil1" d="M2185.03 453.97c2.46,0 4.46,-2.09 4.46,-4.55 0,-2.36 -2,-4.45 -4.46,-4.45 -2.54,0 -4.54,2.09 -4.54,4.45 0,2.46 2,4.55 4.54,4.55zm-3.45 55.53l6.82 0 0 -46.99 -6.82 0 0 46.99z"/>
  <polygon id="29" class="fil1" points="2199.39,509.5 2206.21,509.5 2206.21,445.97 2199.39,445.97 "/>
  <polygon id="30" class="fil1" points="2217.3,509.5 2224.12,509.5 2224.12,445.97 2217.3,445.97 "/>
  <path id="31" class="fil1" d="M2238.57 453.97c2.46,0 4.45,-2.09 4.45,-4.55 0,-2.36 -1.99,-4.45 -4.45,-4.45 -2.54,0 -4.54,2.09 -4.54,4.45 0,2.46 2,4.55 4.54,4.55zm-3.45 55.53l6.81 0 0 -46.99 -6.81 0 0 46.99z"/>
  <path id="32" class="fil1" d="M2272.02 461.42c-4.54,0 -10.18,1.18 -16.91,4.54l2.73 5.55c4.27,-2.18 9,-4.27 13.73,-4.27 10.17,0 12.72,7.27 12.72,13.63l0 1.73c-4.82,-1.55 -10.18,-2.64 -15.27,-2.64 -10.09,0 -18.45,6.27 -18.45,15.63 0,9.27 7.27,15 17.18,15 6.18,0 13.18,-2.91 16.54,-8.45l0 7.36 6.82 0 0 -28.63c0,-11.36 -6.27,-19.45 -19.09,-19.45zm-3.09 43.17c-6.64,0 -11.73,-3.45 -11.73,-9.27 0,-5.63 5.91,-9.63 12.91,-9.63 5.09,0 9.91,0.72 14.18,1.91l0 7.18c-1.82,6.63 -9.18,9.81 -15.36,9.81z"/>
  <path id="33" class="fil1" d="M2324.65 461.42c-6.64,0 -12.73,3.64 -15.45,8.63l0 -7.54 -6.82 0 0 46.99 6.82 0 0 -29.9c0,-6.55 6.63,-12.09 14.54,-12.09 6.9,0 11.72,5.36 11.72,13l0 28.99 6.82 0 0 -29.9c0,-10.64 -7.27,-18.18 -17.63,-18.18z"/>
  <path id="34" class="fil1" d="M2375.18 510.59c6.55,0 12.54,-2.73 17,-7.18l-4.73 -4.63c-3.18,3.54 -7.54,5.72 -12.27,5.72 -9.36,0 -17.18,-8.45 -17.18,-18.54 0,-10 7.82,-18.45 17.18,-18.45 4.64,0 8.91,2.09 12,5.45l4.73 -4.63c-4.46,-4.27 -10.37,-6.91 -16.73,-6.91 -13.18,0 -24.36,11.18 -24.36,24.54 0,13.36 11.18,24.63 24.36,24.63z"/>
  <path id="35" class="fil1" d="M2421.08 504.5c-9.27,0 -15.72,-6.72 -16.72,-15.9l38.44 0c0,-16.46 -8.08,-27.18 -22.26,-27.18 -12.64,0 -23.18,10.45 -23.18,24.45 0,14.45 11.27,24.72 23.81,24.72 6.55,0 14.82,-2.82 18.91,-7.27l-4.18 -4.45c-2.91,3.18 -9.27,5.63 -14.82,5.63zm-0.27 -36.99c9.36,0 14.36,6.54 15.27,15l-31.63 0c1.27,-9.09 8,-15 16.36,-15z"/>
  <path id="36" class="fil1" d="M2454.5 491.96l4.83 0 1.82 -44.9 -8.38 0 1.73 44.9zm2.39 18.63c2.64,0 4.82,-2.27 4.82,-5 0,-2.54 -2.18,-4.82 -4.82,-4.82 -2.81,0 -5,2.28 -5,4.82 0,2.73 2.19,5 5,5z"/>
  <circle class="fil2" cx="335.39" cy="335.39" r="335.39"/>
  <circle class="fil2 str0" cx="335.39" cy="335.39" r="300.2"/>
  <path class="fil3" d="M392.48 504.6c-4.19,11.89 -17.29,30.24 -23.94,37.2 -38.52,40.29 -28,36.15 -63.5,2.87 -8.13,-7.62 -19.39,-23.09 -24.12,-33.15 27.51,11.35 28.41,-19.31 38.52,-57.5 8.06,-30.46 18.87,-51.09 39.24,-63.62 -1.01,29.18 -7.02,37.54 -0.47,75.88 3.6,21.13 11.96,52.21 34.27,38.32zm-110.99 -107.53c-3.81,2.09 -2.85,-2.65 -1.64,5.03 0.83,5.27 7.87,10.78 10.04,13.04 15.11,3.17 12.8,5.06 29.25,-0.39 -2.05,6.35 -26.68,61.04 -31.48,66.92 -6.07,7.43 -14.19,7.32 -15.35,-3.53 -11.24,-10.09 -1.03,-45.14 0.28,-58.18 -35.28,47.2 -27.64,87.01 8.56,130.75 37.88,45.76 66.23,56.54 102.11,7.91l0.9 -1.22c5.44,-10.44 13.63,-18.2 20.53,-29.94 27.6,-46.97 17.5,-71.87 -8.22,-107.57l0.64 3.9c2.35,14.86 11.85,41.05 4.26,55.98 -9.06,17.83 -29.42,-9.34 -28.61,-21.4 -2.67,-3.81 -2.76,-8.73 -2.99,-13.69 -0.45,-9.52 -0.34,-35.13 6.11,-42.79 -0.55,-17.16 26.2,-22.85 27.09,-36.65 -21.25,21.9 -42,-21.57 -89.94,24.61 -4.91,4.73 -22.59,18.32 -31.54,7.22z"/>
  <path class="fil3" d="M471.82 281.65c0.02,24.76 -5.06,43.63 -14.77,64 -4.45,9.33 -7.79,15.31 -13.47,23.55l-16.18 21.81c43.84,-10.31 77.63,-62.81 77.69,-112.32 0.06,-53.16 -26.03,-94.51 -68.83,-121.78 -10.48,-6.68 -29.96,-17.01 -43.47,-19.27 4.12,4.59 9.16,8.23 14.25,12.95 15.79,14.67 26.35,25.64 39.01,45.48 14.6,22.88 25.75,52.76 25.77,85.58z"/>
  <path class="fil3" d="M242.98 390.92l-19.12 -25.98c-6.18,-9.61 -11.82,-20.74 -15.85,-31.56 -9.17,-24.69 -12.04,-54.98 -6.05,-82.72 10.13,-46.94 33.47,-73.09 62.9,-101.67 5.18,-5.02 8.34,-6.18 12.83,-11.37 -25.65,5.15 -51.75,22.92 -69.92,40.22 -60.1,57.22 -52.08,153.17 -0.6,193.37 8.06,6.3 23.49,17.25 35.81,19.71z"/>
  <path class="fil3" d="M402.65 408.16c2.05,5.46 13.24,22.53 17.14,26.27 21.99,-2.66 66.15,-27.79 85.9,-47.58 4.16,-4.17 7.2,-6.38 10.83,-11.45l10.52 -13.92c1.73,-16.31 36.87,-55.04 -28.32,-144.52 8.74,22.31 16.3,31.44 16.85,61.67 0.81,44.38 -20.42,82.17 -54.56,106.49 -11.38,8.11 -40.74,23.47 -58.36,23.04z"/>
  <path class="fil3" d="M133.96 296.83c-6.22,60.07 22.83,92.63 71.49,119.14 9.73,5.3 34,16.7 45.32,18.47l16.67 -23.7 -4.09 -3.69c-16.88,0.48 -45.24,-15.52 -55.64,-23.08 -15.2,-11.04 -27.05,-23.49 -37.6,-42.37 -9.59,-17.15 -15.8,-40.26 -15.3,-62.94 0.43,-20.05 7.71,-49.49 17.96,-61.87 -18.39,14.51 -32.93,57.13 -38.81,80.04z"/>
  <path class="fil3" d="M232.85 363.5c-3.67,-14.31 -9,-22.54 -10.08,-40.3 -1.67,-27.6 11.03,-53.84 24.54,-76.15 6.7,-11.07 12.32,-22.14 19.06,-31.37 20.31,-27.83 51.33,-66.15 38.95,-105.72 -3.4,-10.86 -13.25,-25.49 -20.9,-29.59 3.11,10.76 11.47,21.88 12,36.76 0.7,19.68 -26.27,45.94 -39.1,61.39 -24.52,29.51 -46.9,63.89 -48.9,106.08 -1.29,27.17 10.17,63.67 24.43,78.9z"/>
  <path class="fil3" d="M436.62 365.58c5.76,-10.66 11.54,-16.27 17.26,-32.07 16.35,-45.17 6.89,-83.6 -16.73,-122.56 -10.91,-17.99 -31.01,-40.46 -44.98,-57.36 -6.32,-7.64 -17.03,-18.35 -18.08,-32.16 -1.36,-17.9 8.25,-27.17 11.58,-40.55 -22.83,18.17 -28.76,44.63 -18.97,72.93 9.44,27.27 25.15,44.27 38.56,63.79 19.96,29.05 45.2,70.59 42.24,108.21 -1.37,17.44 -7.73,26.72 -10.88,39.77z"/>
  <path class="fil3" d="M532.73 366.17c-4.66,11.95 -22.91,31.14 -33.4,39.5 -40.57,32.35 -45.22,24.73 -75.94,37.91 3.91,8.64 5.2,18.95 5.34,29.91 14.17,-1.69 36.84,-12.73 48.67,-18.55 17.11,-8.42 35.21,-26.01 38.38,-27.23 2.35,-6.19 5.73,-8.33 9.99,-14.88 10.31,-15.84 18.79,-43.63 14.68,-62.14 -0.5,2.55 -5.12,14.06 -7.72,15.48z"/>
  <path class="fil3" d="M129.26 364.67c2.84,28.54 11.77,47.79 27.27,62.69 13.22,11.57 14.11,16.17 37.7,27.98 10.27,5.14 35.18,17.21 47.38,17.96 0.46,-13.28 3.03,-19.29 4.72,-30.05 -15.1,-5.19 -24.45,-6.55 -38.24,-13.66 -12.99,-6.69 -22.53,-12.29 -32.76,-20.59 -17.09,-13.86 -40.29,-36.35 -45.38,-58.31l-0.69 13.98z"/>
  <path class="fil3" d="M412.93 529.11c17.94,-5.63 50.85,-26.67 61.01,-36.12 14.91,-13.87 23.55,-21.18 34.81,-39.38 2.46,-3.97 5.49,-13.11 8.34,-14.81 -0.81,-4.83 -3.28,0.95 -7.95,4.84 -11.69,9.77 -13.94,13.26 -30.03,23.33 -15.28,9.57 -28.91,16.8 -50.6,19.29 -2.78,26.27 -13.9,35.48 -15.58,42.85z"/>
  <path class="fil3" d="M201.85 498.3c18.44,10.09 32.22,22.55 56.62,30.92 -8.66,-13.57 -13.54,-23.22 -16.69,-42.81 -40.19,-6.36 -59.41,-24.93 -85.33,-47.03 -3.84,-3.28 -1.95,-5.52 -3.07,-0.58 2.48,1.84 6.56,11.95 8.87,15.87 13.5,22.9 37.96,40.33 39.6,43.63z"/>
  <line class="fil4 str1" x1="741.4" y1="397.26" x2="2466.62" y2= "397.26" />
 </g>
</svg>
