<svg width="600" height="164" viewBox="0 0 600 164" fill="none" xmlns="http://www.w3.org/2000/svg">
<path d="M203.36 75.8174C203.36 79.6364 202.251 82.5407 200.027 84.5427C197.794 86.5446 195.109 87.5419 191.973 87.5419C188.339 87.5419 185.527 86.3257 183.55 83.9078C181.57 81.4875 180.587 78.5247 180.587 74.9976V43.0567C180.587 40.3032 181.061 37.895 182.01 35.8469C182.959 33.8109 184.301 32.2468 186.048 31.1717C187.785 30.0941 189.833 29.5638 192.183 29.5638C194.416 29.5638 196.383 30.0478 198.096 31.0208C199.796 31.9938 201.105 33.3463 202.007 35.0831C202.91 36.8296 203.36 38.7853 203.36 40.9502V46.9901H195.029V42.6165C195.029 40.3956 194.878 38.8437 194.588 37.9656C194.289 37.085 193.535 36.6447 192.309 36.6447C190.052 36.6447 188.918 38.3012 188.918 41.5973V76.3841C188.918 77.4496 189.186 78.3982 189.716 79.2204C190.249 80.0426 191.003 80.4585 191.973 80.4585C192.876 80.4585 193.618 80.1228 194.184 79.4636C194.751 78.7923 195.029 77.9944 195.029 77.0677V68.5856H203.36V75.8174Z" fill="#408EE1"/>
<path d="M219.864 49.8944C219.341 49.5831 218.765 49.4225 218.14 49.4225C216.936 49.4225 216.113 50.0355 215.673 51.2737C215.235 52.4996 215.014 54.1318 215.014 56.1678V87.0554H207.653V41.9232H215.014V47.2455H215.153C215.916 44.4335 216.449 42.8013 216.739 42.3148C217.179 41.7724 217.665 41.5048 218.196 41.5048C218.972 41.5048 219.529 41.8405 219.864 42.524V49.8944Z" fill="#408EE1"/>
<path d="M241.676 41.9232L235.775 80.5169C235.208 84.2897 234.814 86.6857 234.571 87.6903C234.327 88.6876 233.97 89.612 233.471 90.4463C232.408 92.4482 230.579 93.4431 228.01 93.4431C226.852 93.4431 225.707 93.1658 224.573 92.6331V85.5157C225.707 86.3135 226.517 86.7076 227.015 86.7076C227.558 86.7076 228.069 86.3719 228.531 85.7127C228.993 85.0413 229.224 84.2654 229.224 83.3872C229.224 83.2243 229.202 82.9932 229.156 82.6697L222.304 41.9232H229.596L232.141 71.0157H232.316L234.386 41.9232H241.676Z" fill="#408EE1"/>
<path d="M265.215 77.1139C265.215 80.1229 264.59 82.5991 263.33 84.5208C262.08 86.4424 260.331 87.4033 258.122 87.4033C257.035 87.4033 256.179 87.1819 255.553 86.7538C254.928 86.3257 254.036 85.4816 252.856 84.207V93.4309H245.495V41.9232H252.856V44.6306H252.994C254.128 42.5484 255.75 41.5048 257.855 41.5048C259.231 41.5048 260.482 41.9694 261.605 42.884C262.727 43.7962 263.607 45.1973 264.245 47.1068C264.892 49.0042 265.215 51.3199 265.215 54.0515V77.1139ZM257.855 78.1671V51.4926C257.855 50.7872 257.636 50.0696 257.208 49.3058C256.779 48.5541 256.13 48.1722 255.274 48.1722C254.974 48.1722 254.651 48.2647 254.303 48.4374C253.955 48.6223 253.654 48.8314 253.41 49.0747C253.179 49.3058 253.065 49.4688 253.065 49.5612L252.926 49.8385H252.856V78.1671C252.856 78.6196 253.111 79.2326 253.62 79.9964C254.128 80.7723 254.79 81.1518 255.575 81.1518C257.091 81.1518 257.855 80.1569 257.855 78.1671Z" fill="#408EE1"/>
<path d="M280.237 48.379H278.271V87.0554H270.91V48.379H268.977V41.9232H270.91V33.2441H278.271V41.9232H280.237V48.379Z" fill="#408EE1"/>
<path d="M303.624 75.3771C303.624 77.3693 303.325 79.2666 302.709 81.0715C302.096 82.8667 301.067 84.37 299.62 85.5862C298.175 86.8 296.275 87.4033 293.916 87.4033C290.433 87.4033 287.898 86.187 286.3 83.757C284.704 81.3269 283.906 78.4226 283.906 75.0536V52.2564C283.906 50.8334 284.218 49.2815 284.843 47.5933C285.456 45.9149 286.497 44.4676 287.956 43.2878C289.426 42.0959 291.323 41.5048 293.685 41.5048C295.536 41.5048 297.122 41.8648 298.428 42.5946C299.747 43.3097 300.778 44.2487 301.517 45.3822C302.271 46.5279 302.804 47.7903 303.128 49.155C303.463 50.5196 303.624 51.9085 303.624 53.3096V75.3771ZM296.266 77.1139V51.7942C296.266 51.0985 296.091 50.3128 295.733 49.4566C295.385 48.6004 294.726 48.1722 293.753 48.1722C292.838 48.1722 292.203 48.5541 291.822 49.3277C291.449 50.0915 291.264 50.9136 291.264 51.7942V76.9071C291.264 79.4637 292.121 80.7358 293.845 80.7358C294.76 80.7358 295.385 80.3418 295.733 79.5682C296.091 78.7923 296.266 77.9701 296.266 77.1139Z" fill="#408EE1"/>
<path d="M345.449 74.5452C345.449 77.8558 344.593 80.8404 342.89 83.5259C341.178 86.1992 338.366 87.5419 334.454 87.5419C331.919 87.5419 329.803 86.963 328.101 85.8173C326.388 84.6594 325.138 83.1902 324.352 81.4194C323.554 79.6485 323.16 77.7731 323.16 75.8076V30.0479H331.423V76.7904C331.423 79.1401 332.326 80.3199 334.131 80.3199C335.288 80.3199 336.074 79.9258 336.493 79.128C336.909 78.3398 337.115 77.2525 337.115 75.8757V30.0479H345.449V74.5452Z" fill="#408EE1"/>
<path d="M369.878 87.0554H362.518V51.5631C362.518 50.8212 362.274 50.0696 361.8 49.3058C361.326 48.5541 360.679 48.1722 359.869 48.1722C359.231 48.1722 358.652 48.379 358.144 48.7974C357.633 49.2133 357.38 49.6877 357.38 50.2082V87.0554H350.02V41.9232H357.38V44.1222H357.519C358.711 42.3732 360.331 41.5048 362.367 41.5048C364.566 41.5048 366.371 42.4194 367.772 44.2487C369.173 46.0876 369.878 48.7512 369.878 52.2564V87.0554Z" fill="#408EE1"/>
<path d="M383.232 35.1172C383.232 36.241 382.816 37.2115 381.982 38.0118C381.138 38.8097 380.211 39.2135 379.194 39.2135C377.978 39.2135 376.971 38.7975 376.195 37.9753C375.421 37.1556 375.027 36.2045 375.027 35.1172C375.027 33.9593 375.421 33.0009 376.207 32.2006C377.005 31.4149 377.978 31.0209 379.136 31.0209C380.257 31.0209 381.23 31.4271 382.028 32.225C382.826 33.0228 383.232 33.9836 383.232 35.1172ZM382.792 87.0555H375.431V41.9232H382.792V87.0555Z" fill="#408EE1"/>
<path d="M398.52 48.379H396.552V87.0554H389.191V48.379H387.26V41.9232H389.191V33.2441H396.552V41.9232H398.52V48.379Z" fill="#408EE1"/>
<path d="M420.032 41.9232L414.131 80.5169C413.562 84.2897 413.17 86.6857 412.927 87.6903C412.684 88.6876 412.324 89.612 411.828 90.4463C410.762 92.4482 408.933 93.4431 406.364 93.4431C405.206 93.4431 404.061 93.1658 402.927 92.6331V85.5157C404.061 86.3135 404.873 86.7076 405.369 86.7076C405.914 86.7076 406.423 86.3719 406.885 85.7127C407.349 85.0413 407.581 84.2654 407.581 83.3872C407.581 83.2243 407.556 82.9932 407.51 82.6697L400.66 41.9232H407.95L410.497 71.0157H410.67L412.742 41.9232H420.032Z" fill="#408EE1"/>
<path d="M461.229 87.0554H455.664C453.72 81.4996 452.054 76.5349 450.687 72.1832C449.322 67.834 447.782 62.7063 446.094 56.7808H445.956V87.0554H438.247V30.0479H443.652C446.753 38.9361 449.994 49.189 453.384 60.809H453.523V30.0479H461.229V87.0554Z" fill="#408EE1"/>
<path d="M485.243 78.155C485.243 79.5439 484.908 80.945 484.227 82.368C483.543 83.8032 482.478 84.9951 481.021 85.9559C479.561 86.9168 477.756 87.4033 475.603 87.4033C472.212 87.4033 469.668 86.4059 467.99 84.404C466.299 82.4021 465.455 79.9258 465.455 76.9874V51.9207C465.455 49.0504 466.299 46.5984 468.002 44.56C469.702 42.524 472.157 41.5048 475.372 41.5048C476.842 41.5048 478.162 41.7262 479.354 42.1665C480.546 42.6043 481.587 43.2635 482.478 44.1319C483.37 45.0003 484.051 46.0657 484.526 47.3257C485 48.576 485.243 49.9893 485.243 51.551V66.5034H472.816V78.099C472.816 79.0477 473.069 79.7191 473.58 80.1229C474.088 80.5291 474.667 80.7358 475.304 80.7358C477.026 80.7358 477.883 79.5561 477.883 77.1844V72.8789H485.243V78.155ZM477.883 60.393V51.0888C477.883 50.1839 477.652 49.4688 477.202 48.9458C476.749 48.4252 476.09 48.1722 475.234 48.1722C474.458 48.1722 473.869 48.4836 473.441 49.1209C473.023 49.7461 472.816 50.4053 472.816 51.0888V60.393H477.883Z" fill="#408EE1"/>
<path d="M500.195 48.379H498.228V87.0554H490.867V48.379H488.936V41.9232H490.867V33.2441H498.228V41.9232H500.195V48.379Z" fill="#408EE1"/>
<path d="M535.595 41.9232L528.582 87.4033H523.017L519.256 58.7949H519.127L515.668 87.4033H509.903L502.613 41.9232H509.903L512.681 70.1813H512.82L516.211 41.9232H522.032L525.736 70.3905H525.863L528.373 41.9232H535.595Z" fill="#408EE1"/>
<path d="M557.791 75.3771C557.791 77.3693 557.49 79.2666 556.877 81.0715C556.264 82.8667 555.235 84.37 553.787 85.5862C552.34 86.8 550.443 87.4033 548.081 87.4033C544.598 87.4033 542.065 86.187 540.467 83.757C538.869 81.3269 538.071 78.4226 538.071 75.0536V52.2564C538.071 50.8334 538.385 49.2815 539.01 47.5933C539.623 45.9149 540.664 44.4676 542.121 43.2878C543.593 42.0959 545.49 41.5048 547.85 41.5048C549.703 41.5048 551.287 41.8648 552.596 42.5946C553.914 43.3097 554.945 44.2487 555.685 45.3822C556.436 46.5279 556.969 47.7903 557.293 49.155C557.628 50.5196 557.791 51.9085 557.791 53.3096V75.3771ZM550.431 77.1139V51.7942C550.431 51.0985 550.258 50.3128 549.898 49.4566C549.553 48.6004 548.893 48.1722 547.92 48.1722C547.006 48.1722 546.368 48.5541 545.987 49.3277C545.617 50.0915 545.432 50.9136 545.432 51.7942V76.9071C545.432 79.4637 546.288 80.7358 548.013 80.7358C548.927 80.7358 549.553 80.3418 549.898 79.5682C550.258 78.7923 550.431 77.9701 550.431 77.1139Z" fill="#408EE1"/>
<path d="M574.584 49.8944C574.063 49.5831 573.484 49.4225 572.859 49.4225C571.655 49.4225 570.835 50.0355 570.395 51.2737C569.955 52.4996 569.736 54.1318 569.736 56.1678V87.0554H562.375V41.9232H569.736V47.2455H569.874C570.638 44.4335 571.171 42.8013 571.46 42.3148C571.898 41.7724 572.385 41.5048 572.917 41.5048C573.693 41.5048 574.248 41.8405 574.584 42.524V49.8944Z" fill="#408EE1"/>
<path d="M598.584 87.0554H591.769L585.427 63.0298H585.288V87.0554H577.928V30.0479H585.288V61.9887H585.427L591.769 41.9232H598.584L591.769 61.2128L598.584 87.0554Z" fill="#408EE1"/>
<path d="M185.915 123.959H187.617L191.862 111.025L196.085 123.959H197.787L202.983 108.77H201.037L196.836 121.062L192.813 108.77H190.889L186.866 121.062L182.665 108.77H180.719L185.915 123.959Z" fill="white"/>
<path d="M210.256 112.263C208.643 112.263 207.162 113.149 206.498 114.362V108.505H204.839V123.959H206.498V116.685C206.498 115.092 208.113 113.745 210.035 113.745C211.715 113.745 212.888 115.048 212.888 116.907V123.959H214.544V116.685C214.544 114.097 212.776 112.263 210.256 112.263Z" fill="white"/>
<path d="M222.394 122.742C220.139 122.742 218.57 121.108 218.327 118.875H227.677C227.677 114.871 225.709 112.263 222.263 112.263C219.188 112.263 216.624 114.805 216.624 118.211C216.624 121.726 219.365 124.224 222.416 124.224C224.009 124.224 226.021 123.538 227.016 122.455L225.999 121.373C225.291 122.146 223.744 122.742 222.394 122.742ZM222.328 113.745C224.605 113.745 225.821 115.335 226.043 117.393H218.349C218.658 115.182 220.295 113.745 222.328 113.745Z" fill="white"/>
<path d="M231.548 114.761V112.528H229.889V123.959H231.548V117.568C231.548 115.335 233.382 113.745 235.97 113.745V112.263C233.868 112.263 232.234 113.236 231.548 114.761Z" fill="white"/>
<path d="M242.756 122.742C240.501 122.742 238.932 121.108 238.689 118.875H248.04C248.04 114.871 246.074 112.263 242.625 112.263C239.55 112.263 236.986 114.805 236.986 118.211C236.986 121.726 239.728 124.224 242.778 124.224C244.371 124.224 246.383 123.538 247.378 122.455L246.361 121.373C245.653 122.146 244.106 122.742 242.756 122.742ZM242.69 113.745C244.967 113.745 246.184 115.335 246.405 117.393H238.711C239.02 115.182 240.657 113.745 242.69 113.745Z" fill="white"/>
<path d="M256.575 123.959H258.3V108.77H256.575V123.959Z" fill="white"/>
<path d="M266.502 112.263C264.887 112.263 263.408 113.149 262.744 114.362V112.528H261.085V123.959H262.744V116.685C262.744 115.092 264.357 113.745 266.281 113.745C267.962 113.745 269.134 115.048 269.134 116.907V123.959H270.791V116.685C270.791 114.097 269.022 112.263 266.502 112.263Z" fill="white"/>
<path d="M278.928 112.263C277.315 112.263 275.834 113.149 275.17 114.362V112.528H273.511V123.959H275.17V116.685C275.17 115.092 276.782 113.745 278.707 113.745C280.387 113.745 281.56 115.048 281.56 116.907V123.959H283.216V116.685C283.216 114.097 281.448 112.263 278.928 112.263Z" fill="white"/>
<path d="M291.22 124.224C294.426 124.224 297.122 121.482 297.122 118.232C297.122 114.983 294.426 112.263 291.22 112.263C288.014 112.263 285.295 114.983 285.295 118.232C285.295 121.482 288.014 124.224 291.22 124.224ZM291.22 122.742C288.944 122.742 287.041 120.687 287.041 118.232C287.041 115.8 288.944 113.745 291.22 113.745C293.475 113.745 295.375 115.8 295.375 118.232C295.375 120.687 293.475 122.742 291.22 122.742Z" fill="white"/>
<path d="M302.539 123.959H304.133L308.929 112.528H307.073L303.337 122.013L299.533 112.528H297.677L302.539 123.959Z" fill="white"/>
<path d="M314.304 112.263C313.197 112.263 311.827 112.55 310.19 113.368L310.854 114.718C311.893 114.187 313.044 113.679 314.192 113.679C316.668 113.679 317.288 115.447 317.288 116.994V117.415C316.116 117.038 314.812 116.773 313.574 116.773C311.119 116.773 309.086 118.298 309.086 120.575C309.086 122.83 310.854 124.224 313.265 124.224C314.768 124.224 316.471 123.516 317.288 122.168V123.959H318.945V116.994C318.945 114.231 317.42 112.263 314.304 112.263ZM313.552 122.764C311.937 122.764 310.699 121.925 310.699 120.509C310.699 119.14 312.136 118.167 313.839 118.167C315.077 118.167 316.25 118.342 317.288 118.631V120.378C316.846 121.991 315.055 122.764 313.552 122.764Z" fill="white"/>
<path d="M326.684 122.278C326.441 122.543 325.999 122.742 325.49 122.742C324.826 122.742 324.252 122.146 324.252 121.305V114.01H327.059V112.528H324.252V109.388H322.593V112.528H320.803V114.01H322.593V121.305C322.593 123.008 323.744 124.224 325.378 124.224C326.154 124.224 326.906 123.959 327.502 123.494L326.684 122.278Z" fill="white"/>
<path d="M330 110.451C330.598 110.451 331.085 109.943 331.085 109.344C331.085 108.77 330.598 108.262 330 108.262C329.382 108.262 328.896 108.77 328.896 109.344C328.896 109.943 329.382 110.451 330 110.451ZM329.161 123.959H330.82V112.528H329.161V123.959Z" fill="white"/>
<path d="M338.801 124.224C342.007 124.224 344.702 121.482 344.702 118.232C344.702 114.983 342.007 112.263 338.801 112.263C335.595 112.263 332.875 114.983 332.875 118.232C332.875 121.482 335.595 124.224 338.801 124.224ZM338.801 122.742C336.524 122.742 334.622 120.687 334.622 118.232C334.622 115.8 336.524 113.745 338.801 113.745C341.055 113.745 342.958 115.8 342.958 118.232C342.958 120.687 341.055 122.742 338.801 122.742Z" fill="white"/>
<path d="M352.221 112.263C350.606 112.263 349.124 113.149 348.463 114.362V112.528H346.804V123.959H348.463V116.685C348.463 115.092 350.075 113.745 351.999 113.745C353.68 113.745 354.853 115.048 354.853 116.907V123.959H356.509V116.685C356.509 114.097 354.741 112.263 352.221 112.263Z" fill="white"/>
<path d="M366.018 123.959H367.74V112.485L373.378 123.073L379.017 112.485V123.959H380.741V108.77H379.017L373.378 119.359L367.74 108.77H366.018V123.959Z" fill="white"/>
<path d="M388.988 122.742C386.733 122.742 385.164 121.108 384.921 118.875H394.271C394.271 114.871 392.305 112.263 388.856 112.263C385.782 112.263 383.218 114.805 383.218 118.211C383.218 121.726 385.959 124.224 389.009 124.224C390.603 124.224 392.614 123.538 393.609 122.455L392.593 121.373C391.885 122.146 390.338 122.742 388.988 122.742ZM388.922 113.745C391.199 113.745 392.415 115.335 392.636 117.393H384.942C385.251 115.182 386.888 113.745 388.922 113.745Z" fill="white"/>
<path d="M401.48 122.742C399.223 122.742 397.654 121.108 397.411 118.875H406.764C406.764 114.871 404.796 112.263 401.346 112.263C398.274 112.263 395.708 114.805 395.708 118.211C395.708 121.726 398.449 124.224 401.502 124.224C403.093 124.224 405.105 123.538 406.1 122.455L405.083 121.373C404.375 122.146 402.828 122.742 401.48 122.742ZM401.412 113.745C403.689 113.745 404.905 115.335 405.127 117.393H397.433C397.744 115.182 399.379 113.745 401.412 113.745Z" fill="white"/>
<path d="M413.837 122.278C413.594 122.543 413.154 122.742 412.645 122.742C411.981 122.742 411.407 122.146 411.407 121.305V114.01H414.214V112.528H411.407V109.388H409.748V112.528H407.958V114.01H409.748V121.305C409.748 123.008 410.896 124.224 412.533 124.224C413.307 124.224 414.059 123.959 414.657 123.494L413.837 122.278Z" fill="white"/>
<path d="M420.384 124.224C422.748 124.224 424.563 122.876 424.563 120.774C424.563 118.607 422.66 117.989 420.826 117.415C418.703 116.729 417.863 116.42 417.863 115.425C417.863 114.319 418.924 113.745 420.206 113.745C421.223 113.745 422.351 114.097 423.5 114.827L424.297 113.545C423.081 112.75 421.622 112.263 420.206 112.263C417.929 112.263 416.205 113.545 416.205 115.622C416.205 117.259 417.265 118.077 420.028 118.875C421.578 119.315 422.904 119.714 422.904 120.952C422.904 122.034 421.887 122.742 420.384 122.742C419.123 122.742 417.82 122.256 416.513 121.305L415.652 122.521C417.022 123.628 418.79 124.224 420.384 124.224Z" fill="white"/>
<path d="M440.303 124.224C442.405 124.224 444.348 123.316 445.764 121.903L444.591 120.709C443.487 121.881 441.962 122.633 440.303 122.633C437.031 122.633 434.268 119.758 434.268 116.352C434.268 112.971 437.031 110.096 440.303 110.096C441.962 110.096 443.487 110.848 444.591 112.02L445.764 110.826C444.348 109.388 442.405 108.505 440.303 108.505C436.102 108.505 432.521 112.086 432.521 116.352C432.521 120.621 436.102 124.224 440.303 124.224Z" fill="white"/>
<path d="M449.235 114.761V112.528H447.578V123.959H449.235V117.568C449.235 115.335 451.071 113.745 453.657 113.745V112.263C451.558 112.263 449.921 113.236 449.235 114.761Z" fill="white"/>
<path d="M456.997 127.938C458.566 127.916 459.67 127.186 460.468 125.24L465.686 112.528H463.893L460.113 122.034L456.111 112.528H454.277L459.252 124.002L458.588 125.418C458.145 126.192 457.658 126.435 456.929 126.435C456.442 126.435 455.978 126.347 455.581 126.148L455.182 127.561C455.712 127.807 456.333 127.938 456.997 127.938Z" fill="white"/>
<path d="M473.71 112.263C471.876 112.263 470.417 113.17 469.553 114.674V112.528H467.896V127.761H469.553V121.813C470.417 123.316 471.876 124.224 473.71 124.224C476.717 124.224 478.972 121.747 478.972 118.232C478.972 114.739 476.717 112.263 473.71 112.263ZM473.401 122.742C471.146 122.742 469.553 120.864 469.553 118.232C469.553 115.601 471.146 113.745 473.401 113.745C475.634 113.745 477.225 115.601 477.225 118.232C477.225 120.864 475.634 122.742 473.401 122.742Z" fill="white"/>
<path d="M486.202 122.278C485.958 122.543 485.518 122.742 485.01 122.742C484.346 122.742 483.772 122.146 483.772 121.305V114.01H486.579V112.528H483.772V109.388H482.113V112.528H480.322V114.01H482.113V121.305C482.113 123.008 483.263 124.224 484.898 124.224C485.671 124.224 486.423 123.959 487.021 123.494L486.202 122.278Z" fill="white"/>
<path d="M494.008 124.224C497.214 124.224 499.911 121.482 499.911 118.232C499.911 114.983 497.214 112.263 494.008 112.263C490.802 112.263 488.082 114.983 488.082 118.232C488.082 121.482 490.802 124.224 494.008 124.224ZM494.008 122.742C491.731 122.742 489.829 120.687 489.829 118.232C489.829 115.8 491.731 113.745 494.008 113.745C496.262 113.745 498.165 115.8 498.165 118.232C498.165 120.687 496.262 122.742 494.008 122.742Z" fill="white"/>
<path d="M508.799 123.959H516.028C518.658 123.959 520.538 122.234 520.538 119.801C520.538 118.145 519.521 116.773 517.775 115.89C519.144 115.092 519.942 114.165 519.942 112.55C519.942 110.339 518.217 108.77 515.763 108.77H508.799V123.959ZM510.523 115.204V110.339H515.32C517.001 110.339 518.196 111.356 518.196 112.772C518.196 114.187 517.001 115.204 515.32 115.204H510.523ZM510.523 122.39V116.773H515.585C517.466 116.773 518.791 117.946 518.791 119.58C518.791 121.217 517.466 122.39 515.585 122.39H510.523Z" fill="white"/>
<path d="M524.63 114.761V112.528H522.971V123.959H524.63V117.568C524.63 115.335 526.464 113.745 529.049 113.745V112.263C526.95 112.263 525.313 113.236 524.63 114.761Z" fill="white"/>
<path d="M531.504 110.451C532.102 110.451 532.589 109.943 532.589 109.344C532.589 108.77 532.102 108.262 531.504 108.262C530.886 108.262 530.399 108.77 530.399 109.344C530.399 109.943 530.886 110.451 531.504 110.451ZM530.665 123.959H532.323V112.528H530.665V123.959Z" fill="white"/>
<path d="M534.997 123.959H536.656V108.505H534.997V123.959Z" fill="white"/>
<path d="M539.354 123.959H541.012V108.505H539.354V123.959Z" fill="white"/>
<path d="M544.527 110.451C545.126 110.451 545.61 109.943 545.61 109.344C545.61 108.77 545.126 108.262 544.527 108.262C543.909 108.262 543.423 108.77 543.423 109.344C543.423 109.943 543.909 110.451 544.527 110.451ZM543.688 123.959H545.344V112.528H543.688V123.959Z" fill="white"/>
<path d="M552.664 112.263C551.56 112.263 550.188 112.55 548.551 113.368L549.215 114.718C550.253 114.187 551.404 113.679 552.554 113.679C555.028 113.679 555.649 115.447 555.649 116.994V117.415C554.476 117.038 553.172 116.773 551.934 116.773C549.48 116.773 547.446 118.298 547.446 120.575C547.446 122.83 549.215 124.224 551.625 124.224C553.129 124.224 554.831 123.516 555.649 122.168V123.959H557.308V116.994C557.308 114.231 555.782 112.263 552.664 112.263ZM551.912 122.764C550.297 122.764 549.059 121.925 549.059 120.509C549.059 119.14 550.497 118.167 552.199 118.167C553.437 118.167 554.61 118.342 555.649 118.631V120.378C555.206 121.991 553.416 122.764 551.912 122.764Z" fill="white"/>
<path d="M565.466 112.263C563.851 112.263 562.369 113.149 561.708 114.362V112.528H560.049V123.959H561.708V116.685C561.708 115.092 563.321 113.745 565.245 113.745C566.923 113.745 568.095 115.048 568.095 116.907V123.959H569.754V116.685C569.754 114.097 567.986 112.263 565.466 112.263Z" fill="white"/>
<path d="M577.758 124.224C579.351 124.224 580.808 123.56 581.893 122.477L580.742 121.351C579.969 122.212 578.908 122.742 577.758 122.742C575.481 122.742 573.579 120.687 573.579 118.232C573.579 115.8 575.481 113.745 577.758 113.745C578.886 113.745 579.925 114.253 580.676 115.07L581.827 113.944C580.742 112.905 579.305 112.263 577.758 112.263C574.552 112.263 571.832 114.983 571.832 118.232C571.832 121.482 574.552 124.224 577.758 124.224Z" fill="white"/>
<path d="M588.922 122.742C586.667 122.742 585.098 121.108 584.855 118.875H594.206C594.206 114.871 592.24 112.263 588.791 112.263C585.716 112.263 583.152 114.805 583.152 118.211C583.152 121.726 585.894 124.224 588.944 124.224C590.537 124.224 592.549 123.538 593.544 122.455L592.527 121.373C591.819 122.146 590.272 122.742 588.922 122.742ZM588.856 113.745C591.133 113.745 592.35 115.335 592.571 117.393H584.877C585.186 115.182 586.823 113.745 588.856 113.745Z" fill="white"/>
<path d="M597.052 119.692H598.227L598.669 108.77H596.631L597.052 119.692ZM597.633 124.224C598.275 124.224 598.806 123.672 598.806 123.007C598.806 122.39 598.275 121.835 597.633 121.835C596.95 121.835 596.417 122.39 596.417 123.007C596.417 123.672 596.95 124.224 597.633 124.224Z" fill="white"/>
<path d="M81.5829 163.19C126.64 163.19 163.166 126.664 163.166 81.6067C163.166 36.5497 126.64 0.0238037 81.5829 0.0238037C36.5259 0.0238037 0 36.5497 0 81.6067C0 126.664 36.5259 163.19 81.5829 163.19Z" fill="#408EE1"/>
<path d="M81.5826 154.63C121.912 154.63 154.606 121.936 154.606 81.6067C154.606 41.2772 121.912 8.58368 81.5826 8.58368C41.2531 8.58368 8.55957 41.2772 8.55957 81.6067C8.55957 121.936 41.2531 154.63 81.5826 154.63Z" fill="#408EE1" stroke="#FEFEFE" stroke-width="12.4974" stroke-miterlimit="22.9256"/>
<path fill-rule="evenodd" clip-rule="evenodd" d="M95.4704 122.767C94.4512 125.659 91.2646 130.123 89.647 131.816C80.2771 141.616 82.8361 140.609 74.2008 132.514C72.2232 130.66 69.4842 126.897 68.3336 124.45C75.0254 127.211 75.2443 119.753 77.7035 110.463C79.6641 103.054 82.2936 98.0357 87.2486 94.9878C87.0029 102.086 85.541 104.119 87.1343 113.445C88.0099 118.585 90.0435 126.145 95.4704 122.767ZM68.4723 96.6103C67.5455 97.1186 67.779 95.9657 68.0734 97.8338C68.2753 99.1157 69.9877 100.456 70.5156 101.006C74.191 101.777 73.6291 102.237 77.6306 100.911C77.1319 102.456 71.1407 115.759 69.9731 117.189C68.4966 118.996 66.5214 118.97 66.2393 116.33C63.5052 113.876 65.9887 105.35 66.3074 102.178C57.7256 113.659 59.584 123.343 68.3896 133.983C77.6038 145.114 84.4999 147.736 93.2276 135.907L93.4465 135.61C94.7698 133.071 96.762 131.183 98.4404 128.327C105.154 116.902 102.697 110.845 96.4409 102.161L96.5966 103.11C97.1682 106.725 99.4791 113.095 97.6328 116.727C95.429 121.064 90.4765 114.455 90.6735 111.521C90.024 110.595 90.0021 109.398 89.9462 108.191C89.8367 105.876 89.8635 99.646 91.4324 97.7827C91.2987 93.6086 97.8055 92.2245 98.022 88.8677C92.853 94.1948 87.8056 83.6208 76.1443 94.854C74.95 96.0046 70.6493 99.3103 68.4723 96.6103Z" fill="#FEFEFE"/>
<path fill-rule="evenodd" clip-rule="evenodd" d="M114.769 68.5346C114.774 74.5574 113.538 79.1475 111.176 84.1024C110.094 86.3719 109.281 87.8266 107.899 89.8309L103.964 95.1362C114.628 92.6283 122.847 79.8578 122.862 67.8146C122.876 54.8835 116.53 44.8252 106.119 38.1918C103.57 36.5669 98.8312 34.0542 95.5449 33.5045C96.5471 34.621 97.7731 35.5064 99.0112 36.6545C102.852 40.223 105.421 42.8914 108.5 47.7174C112.052 53.2829 114.764 60.5512 114.769 68.5346Z" fill="#FEFEFE"/>
<path fill-rule="evenodd" clip-rule="evenodd" d="M59.1044 95.1143L54.4535 88.7947C52.9502 86.4571 51.5783 83.7497 50.598 81.1178C48.3674 75.112 47.6693 67.744 49.1264 60.9963C51.5905 49.5783 57.2679 43.2173 64.4267 36.2653C65.6867 35.0442 66.4553 34.762 67.5475 33.4996C61.3082 34.7523 54.9595 39.0748 50.5396 43.283C35.9204 57.2016 37.8713 80.5413 50.3937 90.3198C52.3543 91.8523 56.1076 94.5159 59.1044 95.1143Z" fill="#FEFEFE"/>
<path fill-rule="evenodd" clip-rule="evenodd" d="M97.9434 99.3079C98.442 100.636 101.164 104.788 102.113 105.698C107.462 105.051 118.203 98.9381 123.008 94.1243C124.02 93.1099 124.759 92.5723 125.642 91.3391L128.201 87.9531C128.622 83.9857 137.17 74.5647 121.312 52.7989C123.438 58.2257 125.277 60.4466 125.411 67.8C125.608 78.5953 120.444 87.7877 112.139 93.7034C109.371 95.6762 102.229 99.4125 97.9434 99.3079Z" fill="#FEFEFE"/>
<path fill-rule="evenodd" clip-rule="evenodd" d="M32.5856 72.2271C31.0726 86.839 38.139 94.7591 49.9754 101.208C52.3422 102.497 58.2458 105.27 60.9994 105.7L65.0543 99.9354L64.0595 99.0378C59.9534 99.1546 53.0549 95.2626 50.5251 93.4237C46.8278 90.7382 43.9453 87.7098 41.379 83.1173C39.0463 78.9456 37.5357 73.3241 37.6573 67.8073C37.7619 62.9301 39.5328 55.7689 42.0261 52.7575C37.5527 56.287 34.0159 66.6543 32.5856 72.2271Z" fill="#FEFEFE"/>
<path fill-rule="evenodd" clip-rule="evenodd" d="M56.6405 88.4444C55.7478 84.9636 54.4513 82.9616 54.1886 78.6415C53.7823 71.9279 56.8716 65.5451 60.1579 60.1182C61.7876 57.4255 63.1547 54.7327 64.7942 52.4875C69.7345 45.7179 77.2801 36.3967 74.2687 26.7714C73.4416 24.1297 71.0456 20.571 69.1848 19.5737C69.9413 22.191 71.9749 24.8959 72.1038 28.5155C72.274 33.3026 65.7137 39.6903 62.5928 43.4484C56.6283 50.6267 51.1845 58.9896 50.698 69.2522C50.3842 75.8612 53.1718 84.7398 56.6405 88.4444Z" fill="#FEFEFE"/>
<path fill-rule="evenodd" clip-rule="evenodd" d="M106.206 88.9503C107.608 86.3573 109.013 84.9927 110.405 81.1494C114.382 70.1619 112.081 60.8139 106.335 51.3369C103.681 46.9609 98.7922 41.4951 95.394 37.3842C93.8567 35.5258 91.2515 32.9206 90.9961 29.5614C90.6653 25.2073 93.0029 22.9523 93.8129 19.6977C88.2596 24.1175 86.8171 30.5538 89.1985 37.4378C91.4948 44.0711 95.3162 48.2063 98.5781 52.9545C103.433 60.0209 109.573 70.1254 108.853 79.2764C108.52 83.5186 106.973 85.776 106.206 88.9503Z" fill="#FEFEFE"/>
<path fill-rule="evenodd" clip-rule="evenodd" d="M129.586 89.0938C128.452 92.0007 124.013 96.6686 121.461 98.7021C111.593 106.571 110.462 104.718 102.989 107.924C103.94 110.025 104.254 112.533 104.288 115.199C107.735 114.788 113.249 112.103 116.127 110.687C120.289 108.639 124.692 104.36 125.463 104.063C126.035 102.558 126.857 102.037 127.893 100.444C130.401 96.5907 132.464 89.8309 131.464 85.3284C131.342 85.9487 130.218 88.7484 129.586 89.0938Z" fill="#FEFEFE"/>
<path fill-rule="evenodd" clip-rule="evenodd" d="M31.4424 88.729C32.1332 95.6713 34.3054 100.354 38.0758 103.978C41.2915 106.793 41.508 107.911 47.2462 110.784C49.7444 112.035 55.8037 114.971 58.7713 115.153C58.8832 111.923 59.5083 110.461 59.9194 107.843C56.2464 106.581 53.972 106.25 50.6176 104.521C47.4578 102.893 45.1372 101.531 42.6488 99.5122C38.4917 96.1407 32.8484 90.6701 31.6102 85.3284L31.4424 88.729Z" fill="#FEFEFE"/>
<path fill-rule="evenodd" clip-rule="evenodd" d="M100.444 128.729C104.808 127.359 112.813 122.241 115.285 119.943C118.912 116.569 121.013 114.791 123.752 110.363C124.351 109.398 125.088 107.175 125.781 106.761C125.584 105.586 124.983 106.992 123.847 107.938C121.004 110.315 120.456 111.164 116.542 113.613C112.826 115.941 109.51 117.7 104.234 118.306C103.558 124.696 100.853 126.936 100.444 128.729Z" fill="#FEFEFE"/>
<path fill-rule="evenodd" clip-rule="evenodd" d="M49.0988 121.234C53.5843 123.689 56.9363 126.719 62.8715 128.755C60.765 125.455 59.5779 123.107 58.8117 118.342C49.0356 116.795 44.3603 112.278 38.0554 106.902C37.1213 106.104 37.581 105.559 37.3086 106.761C37.9118 107.209 38.9043 109.668 39.4662 110.621C42.75 116.192 48.6999 120.431 49.0988 121.234Z" fill="#FEFEFE"/>
<path d="M180.344 96.6565H600" stroke="white" stroke-width="6.24872" stroke-miterlimit="22.9256"/>
</svg>
