<svg width="19" height="12" viewBox="0 0 19 12" fill="none" xmlns="http://www.w3.org/2000/svg">
<path d="M14.8696 9.91304V11.5652H4.95652V9.91304C4.95652 9.91304 4.95652 6.6087 9.91304 6.6087C14.8696 6.6087 14.8696 9.91304 14.8696 9.91304ZM12.3913 2.47826C12.3913 1.98811 12.246 1.50896 11.9736 1.10141C11.7013 0.693866 11.3143 0.376221 10.8614 0.188647C10.4086 0.0010738 9.91029 -0.048004 9.42956 0.0476202C8.94882 0.143244 8.50724 0.379276 8.16065 0.725867C7.81406 1.07246 7.57803 1.51404 7.4824 1.99478C7.38678 2.47551 7.43585 2.97381 7.62343 3.42665C7.811 3.87949 8.12865 4.26655 8.5362 4.53886C8.94374 4.81117 9.42289 4.95652 9.91304 4.95652C10.5703 4.95652 11.2007 4.69542 11.6654 4.23066C12.1302 3.76589 12.3913 3.13554 12.3913 2.47826ZM15.0348 6.65826C15.4863 7.07486 15.8504 7.57723 16.1057 8.13606C16.361 8.69488 16.5024 9.29897 16.5217 9.91304V11.5652H19V9.91304C19 9.91304 19 7.06304 15.0348 6.65826ZM14.0435 9.42981e-07C13.7939 0.00015031 13.5458 0.0391685 13.3083 0.115653C13.7916 0.808715 14.0507 1.63333 14.0507 2.47826C14.0507 3.3232 13.7916 4.14781 13.3083 4.84087C13.5458 4.91735 13.7939 4.95637 14.0435 4.95652C14.7008 4.95652 15.3311 4.69542 15.7959 4.23066C16.2606 3.76589 16.5217 3.13554 16.5217 2.47826C16.5217 1.82099 16.2606 1.19063 15.7959 0.725867C15.3311 0.261103 14.7008 9.42981e-07 14.0435 9.42981e-07ZM5.23739 3.23826L6.19565 4.40304L2.27174 8.32696L0 5.8487L0.958261 4.89044L2.27174 6.19565L5.23739 3.23826Z" fill="#2B65FB"/>
</svg>
