<svg width="20" height="20" viewBox="0 0 20 20" fill="none" xmlns="http://www.w3.org/2000/svg">
<g clip-path="url(#clip0_516_338)">
<path d="M10 0C15.5226 0 20 4.4774 20 10C20 15.5226 15.5224 20 10 20C4.4776 20 0 15.5238 0 10C0 4.4762 4.4768 0 10 0Z" fill="#53AE94"/>
<path d="M11.2339 8.66777V7.18017H14.6357V4.91357H5.37246V7.18017H8.77466V8.66657C6.00966 8.79357 3.93066 9.34117 3.93066 9.99717C3.93066 10.6532 6.01066 11.2008 8.77466 11.3286V16.0936H11.2347V11.3282C13.9947 11.2008 16.0695 10.6536 16.0695 9.99817C16.0695 9.34277 13.9947 8.79557 11.2347 8.66817M11.2347 10.9246V10.9234C11.1653 10.9278 10.8087 10.9492 10.0147 10.9492C9.37986 10.9492 8.93326 10.9312 8.77586 10.923V10.925C6.33306 10.8168 4.50966 10.3914 4.50966 9.88237C4.50966 9.37337 6.33326 8.94857 8.77586 8.84017V10.5012C8.93586 10.5122 9.39346 10.5392 10.0251 10.5392C10.7837 10.5392 11.1651 10.5076 11.2351 10.5012V8.84017C13.6731 8.94877 15.4923 9.37457 15.4923 9.88177C15.4923 10.389 13.6723 10.815 11.2351 10.9236" fill="white"/>
</g>
<defs>
<clipPath id="clip0_516_338">
<rect width="20" height="20" fill="white"/>
</clipPath>
</defs>
</svg>
