<svg width="18" height="22" viewBox="0 0 18 22" fill="none" xmlns="http://www.w3.org/2000/svg">
<path d="M9 11L11.6515 8.34851C11.038 7.73507 10.2308 7.35333 9.36734 7.26835C8.50393 7.18336 7.63776 7.40038 6.91642 7.88243C6.19508 8.36448 5.6632 9.08173 5.4114 9.91198C5.15961 10.7422 5.20349 11.6341 5.53555 12.4356C5.86762 13.2371 6.46733 13.8987 7.2325 14.3076C7.99767 14.7166 8.88096 14.8475 9.73186 14.6782C10.5828 14.5089 11.3486 14.0498 11.899 13.3791C12.4493 12.7084 12.7501 11.8676 12.75 11" stroke="#747475" stroke-width="1.5" stroke-linecap="round" stroke-linejoin="round"/>
<path d="M8.99999 20.75C13.5215 19.1915 16.7445 15.5685 17.25 10.9555C17.3903 8.95298 17.3784 6.9427 17.2145 4.94199C17.1928 4.62663 17.0544 4.33067 16.8262 4.11191C16.598 3.89316 16.2965 3.76733 15.9805 3.75899C13.935 3.69599 11.5575 3.35499 9.72049 1.54549C9.52852 1.35626 9.26979 1.25018 9.00024 1.25018C8.73069 1.25018 8.47196 1.35626 8.27999 1.54549C6.44249 3.35499 4.06499 3.69599 2.01999 3.75899C1.704 3.76733 1.40246 3.89316 1.17428 4.11191C0.946093 4.33067 0.807651 4.62663 0.785991 4.94199C0.621899 6.94269 0.609865 8.95296 0.749991 10.9555C1.25549 15.5685 4.47849 19.1915 8.99999 20.75Z" stroke="#747475" stroke-linecap="round" stroke-linejoin="round"/>
</svg>
