<svg width="18" height="15" viewBox="0 0 18 15" fill="none" xmlns="http://www.w3.org/2000/svg">
<path d="M12.6 13V15H0V13C0 13 0 9.00002 6.3 9.00002C12.6 9.00002 12.6 13 12.6 13ZM9.45 3.50004C9.45 2.80781 9.26526 2.13112 8.91913 1.55555C8.573 0.979981 8.08104 0.531379 7.50545 0.266473C6.92986 0.00156766 6.2965 -0.0677438 5.68546 0.067304C5.07442 0.202352 4.51315 0.535693 4.07261 1.02518C3.63208 1.51466 3.33207 2.1383 3.21053 2.81723C3.08898 3.49616 3.15136 4.19989 3.38978 4.83943C3.6282 5.47897 4.03194 6.02559 4.54995 6.41017C5.06797 6.79476 5.67699 7.00003 6.3 7.00003C7.13543 7.00003 7.93665 6.63128 8.52739 5.97491C9.11813 5.31853 9.45 4.42829 9.45 3.50004ZM12.546 9.00002C13.0993 9.47577 13.552 10.0805 13.8723 10.7715C14.1926 11.4626 14.3727 12.2233 14.4 13V15H18V13C18 13 18 9.37002 12.546 9.00002ZM11.7 5.25788e-05C11.0805 -0.00378012 10.4747 0.202008 9.963 0.590051C10.5097 1.43878 10.8036 2.45633 10.8036 3.50004C10.8036 4.54375 10.5097 5.5613 9.963 6.41003C10.4747 6.79807 11.0805 7.00386 11.7 7.00003C12.5354 7.00003 13.3366 6.63128 13.9274 5.97491C14.5181 5.31853 14.85 4.42829 14.85 3.50004C14.85 2.57179 14.5181 1.68155 13.9274 1.02518C13.3366 0.3688 12.5354 5.25788e-05 11.7 5.25788e-05Z" fill="#2B65FB"/>
</svg>
