<svg width="300" height="300" viewBox="0 0 300 300" fill="none" xmlns="http://www.w3.org/2000/svg">
<path d="M91.7373 126.063L149.997 67.8043L208.287 126.093L242.187 92.1927L149.997 0L57.8389 92.1627L91.7373 126.063ZM0 149.995L33.9009 116.094L67.7996 149.993L33.899 183.893L0 149.995ZM91.7373 173.936L149.997 232.195L208.285 173.908L242.203 207.79L242.187 207.808L149.997 299.999L57.8359 207.839L57.7879 207.791L91.7373 173.936ZM232.2 150.014L266.101 116.113L300 150.011L266.099 183.912L232.2 150.014Z" fill="#F3BA2F"/>
<path d="M184.382 149.982H184.397L149.997 115.582L124.575 141.004H124.574L121.653 143.926L115.629 149.952L115.581 149.998L115.629 150.048L149.997 184.417L184.397 150.018L184.413 149.998L184.382 149.982Z" fill="#F3BA2F"/>
</svg>
