<svg width="1001" height="1001" viewBox="0 0 1001 1001" fill="none" xmlns="http://www.w3.org/2000/svg">
<path d="M985.05 621.032C918.261 888.922 646.918 1051.94 378.997 985.151C111.201 918.363 -51.8328 647.02 14.9716 379.146C81.7291 111.225 353.057 -51.8246 620.899 14.9641C888.804 81.7529 1051.84 353.127 985.05 621.032Z" fill="#F7931A"/>
<path d="M720.488 428.823C730.427 362.284 679.765 326.515 610.492 302.653L632.963 212.518L578.082 198.844L556.204 286.604C541.797 283.01 526.982 279.619 512.262 276.259L534.296 187.921L479.461 174.248L456.974 264.352C445.036 261.633 433.316 258.945 421.939 256.116L422.002 255.835L346.337 236.942L331.742 295.543C331.742 295.543 372.449 304.872 371.59 305.45C393.811 310.997 397.843 325.702 397.155 337.36L371.559 440.043C373.09 440.434 375.075 440.996 377.262 441.872L371.48 440.434L335.586 584.278C332.867 591.029 325.975 601.155 310.442 597.311C310.989 598.108 270.563 587.357 270.563 587.357L243.325 650.176L314.74 667.975C328.022 671.304 341.04 674.788 353.838 678.07L331.132 769.252L385.935 782.926L408.438 692.728C423.393 696.791 437.925 700.541 452.146 704.073L429.737 793.849L484.603 807.522L507.308 716.527C600.866 734.233 671.233 727.091 700.814 642.488C724.676 574.355 699.642 535.054 650.418 509.41C686.266 501.113 713.285 477.532 720.488 428.823ZM595.115 604.609C578.144 672.741 463.444 635.925 426.237 626.674L456.365 505.894C493.557 515.177 612.789 533.554 595.115 604.609ZM612.07 427.839C596.6 489.814 501.12 458.326 470.132 450.607L497.448 341.063C528.436 348.783 628.197 363.191 612.07 427.839Z" fill="white"/>
</svg>
